# xmcd CD database file
#
# Track frame offsets:
#	150
#	24823
#	41494
#	58730
#	75797
#	93120
#	108513
#	126886
#	140911
#	157254
#	172065
#
# Disc length: 2542 seconds
#
# Revision: 0
# Processed by: cddbd v1.5PL3 Copyright (c) Steve Scherf et al.
# Submitted via: CDex 1.50
#
DISCID=8b09ec0b
DTITLE=Cynthia Riveroll and Gus Andrews - Standard One
DYEAR=1900
DGENRE=Jazz
TTITLE0=Blue Prelude
TTITLE1=It had to be you
TTITLE2=Willow weep for me
TTITLE3=East of the sun
TTITLE4=All or nothing at all
TTITLE5=Hallelujah
TTITLE6=Cry me a river
TTITLE7=Lullaby of broadway
TTITLE8=Mad about him blues
TTITLE9=My heart belongs to daddy
TTITLE10=Meditation
EXTD=
EXTT0=
EXTT1=
EXTT2=
EXTT3=
EXTT4=
EXTT5=
EXTT6=
EXTT7=
EXTT8=
EXTT9=
EXTT10=
PLAYORDER=
